HIERARCHY
ROOT Hips
{
	OFFSET -3.958830 18.904000 13.208200
	CHANNELS 6 Xposition Yposition Zposition Zrotation Yrotation Xrotation 
	JOINT LHipJoint
	{
		OFFSET 0.000000 0.000000 0.000000
		CHANNELS 3 Zrotation Yrotation Xrotation
		JOINT LeftUpLeg
		{
			OFFSET 1.800000 -1.400000 0.085000
			CHANNELS 3 Zrotation Yrotation Xrotation
			JOINT LeftLeg
			{
				OFFSET 2.215000 -6.000000 0.000000
				CHANNELS 3 Zrotation Yrotation Xrotation
				JOINT LeftFoot
				{
					OFFSET 2.500000 -6.900000 0.000000
					CHANNELS 3 Zrotation Yrotation Xrotation
					JOINT LeftToeBase
					{
						OFFSET 0.200000 -0.500000 1.950000
						CHANNELS 3 Zrotation Yrotation Xrotation
						End Site
						{
							OFFSET 0.000000 0.000000 0.000000
						}
					}
				}
			}
		}
	}
	JOINT RHipJoint
	{
		OFFSET 0.000000 0.000000 0.000000
		CHANNELS 3 Zrotation Yrotation Xrotation
		JOINT RightUpLeg
		{
			OFFSET -1.800000 -1.400000 0.085000
			CHANNELS 3 Zrotation Yrotation Xrotation
			JOINT RightLeg
			{
				OFFSET -2.215000 -6.000000 0.000000
				CHANNELS 3 Zrotation Yrotation Xrotation
				JOINT RightFoot
				{
					OFFSET -2.500000 -6.900000 0.000000
					CHANNELS 3 Zrotation Yrotation Xrotation
					JOINT RightToeBase
					{
						OFFSET -0.200000 -0.500000 1.950000
						CHANNELS 3 Zrotation Yrotation Xrotation
						End Site
						{
							OFFSET 0.000000 0.000000 0.000000
						}
					}
				}
			}
		}
	}
	JOINT LowerBack
	{
		OFFSET 0.000000 0.000000 0.000000
		CHANNELS 3 Zrotation Yrotation Xrotation
		JOINT Spine
		{
			OFFSET -0.087000 1.940000 -0.288900
			CHANNELS 3 Zrotation Yrotation Xrotation
			JOINT Spine1
			{
				OFFSET 0.000000 1.950000 0.060000
				CHANNELS 3 Zrotation Yrotation Xrotation
				JOINT Neck
				{
					OFFSET 0.000000 0.000000 0.000000
					CHANNELS 3 Zrotation Yrotation Xrotation
					JOINT Neck1
					{
						OFFSET 0.000000 1.600000 0.340000
						CHANNELS 3 Zrotation Yrotation Xrotation
						JOINT Head
						{
							OFFSET 0.000000 1.667000 -0.240000
							CHANNELS 3 Zrotation Yrotation Xrotation
							End Site
							{
								OFFSET 0.000000 0.000000 0.000000
							}
						}
					}
				}
				JOINT LeftShoulder
				{
					OFFSET 0.000000 0.000000 0.000000
					CHANNELS 3 Zrotation Yrotation Xrotation
					JOINT LeftArm
					{
						OFFSET 2.700000 1.550000 -0.730000
						CHANNELS 3 Zrotation Yrotation Xrotation
						JOINT LeftForeArm
						{
							OFFSET 5.450000 0.000000 0.000000
							CHANNELS 3 Zrotation Yrotation Xrotation
							JOINT LeftHand
							{
								OFFSET 3.450000 0.000000 0.000000
								CHANNELS 3 Zrotation Yrotation Xrotation
								JOINT LeftHandIndex1
								{
									OFFSET 0.750000 0.000000 0.000000
									CHANNELS 3 Zrotation Yrotation Xrotation
									End Site
									{
										OFFSET 0.000000 0.000000 0.000000
									}
								}
							}
						}
					}
				}
				JOINT RightShoulder
				{
					OFFSET 0.000000 0.000000 0.000000
					CHANNELS 3 Zrotation Yrotation Xrotation
					JOINT RightArm
					{
						OFFSET -2.700000 1.550000 -0.730000
						CHANNELS 3 Zrotation Yrotation Xrotation
						JOINT RightForeArm
						{
							OFFSET -5.450000 0.000000 0.000000
							CHANNELS 3 Zrotation Yrotation Xrotation
							JOINT RightHand
							{
								OFFSET -3.450000 0.000000 0.000000
								CHANNELS 3 Zrotation Yrotation Xrotation
								JOINT RightHandIndex1
								{
									OFFSET -0.750000 0.000000 0.000000
									CHANNELS 3 Zrotation Yrotation Xrotation
									End Site
									{
										OFFSET 0.000000 0.000000 0.000000
									}
								}
							}
						}
					}
				}
			}
		}
	}
}
MOTION
Frames: 10
Frame Time: 0.016667
-1.079030 16.834100 -2.735180 -1.799318 2.484651 5.702072 -15.025503 13.216658 2.793352 15.247796 -1.715378 -16.662027 -4.521749 4.788680 8.466214 -0.392042 3.702517 3.273172 0.278800 0.214770 0.196460 18.317792 -11.186734 2.427058 -17.750673 1.172706 -25.004439 7.008701 -8.756373 30.050164 -0.133113 -5.018992 2.481158 0.285400 0.196060 0.097030 -3.877030 -1.126647 -7.001772 9.505191 -0.825910 9.615240 -6.634029 -0.067504 1.039567 3.094616 -3.435483 -4.115644 -5.227296 2.221946 20.889224 -4.108990 3.356680 -9.146180 -14.240139 16.166270 -1.598517 -44.211208 -2.259383 3.796692 127.908530 -64.241453 -109.582562 -4.045151 3.018712 0.028980 0.233930 -0.142690 0.098720 7.678108 -14.007340 2.177154 44.894725 -9.181479 -4.400846 -127.215284 61.932223 -109.330566 2.150578 -1.684943 -0.135970 0.148260 -0.044300 -0.116440 
-1.121770 16.827770 -2.735270 -1.510485 2.193944 6.123867 -15.028368 13.212848 2.841789 15.201746 -1.789655 -16.572424 -4.679867 4.678693 7.669034 -0.394602 3.703521 3.284197 0.273410 0.208060 0.185550 18.312572 -11.127489 2.431927 -18.279137 1.068828 -24.985611 7.264716 -8.416684 28.159590 -0.082449 -4.798759 2.559692 0.291140 0.213310 0.093560 -3.863266 -1.234916 -7.039435 9.809907 -0.996444 9.624060 -6.535932 -0.147997 0.154695 2.981269 -4.045089 -3.954545 -6.254782 2.466706 20.673000 -4.348160 3.157660 -8.675320 -13.889386 16.468742 -1.679145 -42.977282 -2.321124 3.921434 120.807587 -62.399671 -96.461889 -4.070643 2.576500 0.014930 0.246650 -0.161000 0.102340 7.487786 -13.773211 2.042772 41.096624 -8.789744 -3.895787 -121.358463 59.430244 -96.093911 2.105873 -1.301454 -0.143970 0.155050 -0.038400 -0.112450 
-1.191750 16.815400 -2.736700 -0.919248 1.908858 6.849577 -15.022513 13.165957 2.937774 15.015718 -1.941978 -16.182445 -4.925509 4.369189 5.663155 -0.386238 3.684546 3.312393 0.278150 0.221410 0.169450 18.320612 -11.019166 2.439974 -19.208707 0.859794 -25.012937 7.499451 -7.851785 25.177851 -0.016028 -4.478052 2.674773 0.310390 0.238700 0.094670 -3.883680 -1.383384 -7.121322 10.742893 -1.497541 9.632184 -6.893227 -0.506503 -1.341592 2.845719 -5.086599 -3.660581 -8.020011 2.857539 20.268084 -4.784710 2.821570 -8.008190 -13.213061 16.610611 -2.126437 -39.980819 -2.748516 2.688749 109.246265 -59.797270 -74.471509 -3.955629 2.051557 -0.018550 0.269860 -0.184200 0.114910 6.932361 -13.124121 1.824269 34.356210 -8.591027 -4.207909 -113.158064 57.099015 -77.686880 1.935043 -0.953656 -0.142870 0.162260 -0.037300 -0.097870 
-1.277380 16.804330 -2.744650 -0.021394 1.654636 7.330966 -14.993914 13.080422 3.014827 14.764386 -2.031927 -15.555715 -5.373767 4.144822 3.836728 -0.366984 3.711528 3.323493 0.292630 0.248140 0.160160 18.357094 -10.912447 2.466030 -20.425416 0.609540 -24.852401 7.921847 -7.448911 22.429623 0.022243 -4.274734 2.741732 0.336120 0.260840 0.097350 -3.979428 -1.465609 -7.216225 12.159596 -2.361563 9.637137 -7.938430 -1.207426 -2.309641 2.648559 -6.269950 -3.589619 -10.122721 3.789725 20.139004 -5.087170 2.921280 -7.239840 -13.118828 14.773360 -2.487594 -34.348207 -2.635881 -0.073841 93.415945 -55.666777 -50.806295 -3.866446 2.248246 -0.052400 0.290790 -0.201920 0.129710 7.066390 -10.610675 1.448761 25.966059 -8.259812 -5.661784 -98.281003 57.415199 -55.927273 1.689715 -0.826150 -0.137450 0.167060 -0.042160 -0.082500 
-1.373710 16.789200 -2.757560 0.958941 1.517939 7.524008 -14.959409 12.971164 3.019967 14.243615 -2.055498 -14.602846 -5.254692 3.848873 2.112154 -0.352050 3.716082 3.352455 0.297970 0.267040 0.145260 18.414363 -10.805914 2.542642 -21.888792 0.402286 -25.028571 9.083726 -7.702118 21.475974 0.021993 -4.393138 2.689866 0.359700 0.295440 0.100660 -4.113703 -1.462338 -7.276563 13.617762 -3.280195 9.436036 -9.092781 -1.921873 -2.178455 2.440305 -7.244375 -3.931351 -11.877236 5.012592 20.043565 -5.246880 3.487430 -6.152240 -13.426501 11.465342 -2.217010 -26.969977 -1.005847 -2.073966 74.769000 -50.228324 -32.026319 -3.953038 2.677356 -0.088630 0.322430 -0.224110 0.145970 7.686924 -6.790488 1.190023 16.442315 -7.955605 -6.210927 -77.055790 56.066988 -35.629647 1.718645 -1.308209 -0.139270 0.175450 -0.043910 -0.067420 
-1.477010 16.775990 -2.782120 1.818391 1.262050 7.239176 -14.923656 12.846067 3.000837 13.818043 -1.988982 -13.235666 -4.976471 3.585089 0.414154 -0.328107 3.759026 3.365964 0.297440 0.276340 0.131700 18.482339 -10.711973 2.623843 -23.200003 0.244017 -25.286528 10.619336 -8.412154 21.986500 -0.007652 -4.715412 2.560545 0.373300 0.322230 0.109870 -4.261682 -1.401739 -7.310040 15.059802 -4.261343 9.195723 -10.491910 -2.549329 -0.511926 2.273249 -7.838976 -4.898242 -13.009848 5.871340 19.989166 -5.404450 4.043350 -5.198500 -14.301000 6.845864 -1.261377 -17.484719 1.961751 -2.808009 55.953364 -43.093639 -18.254927 -4.051766 2.996686 -0.117720 0.351020 -0.240960 0.154890 8.893474 -1.991730 1.802748 6.448359 -7.235487 -4.811312 -54.013050 49.698335 -19.400033 1.940261 -1.792873 -0.138120 0.174580 -0.041020 -0.057060 
-1.588420 16.773980 -2.809010 2.569249 0.900095 6.426355 -14.904898 12.771396 2.968294 13.702186 -1.817819 -11.503695 -4.773246 3.491287 -0.707438 -0.281981 3.848142 3.349726 0.289110 0.266190 0.140690 18.532795 -10.622407 2.700423 -24.237966 0.149142 -25.781166 11.914427 -9.308079 23.572494 -0.058701 -5.094385 2.411364 0.358940 0.308510 0.115930 -4.356792 -1.404777 -7.347128 15.906504 -5.191945 9.267926 -11.802452 -2.998802 2.181436 2.370830 -7.922529 -6.247154 -13.382894 6.384558 20.432898 -5.865260 4.849100 -4.715970 -15.496118 1.927475 0.134546 -7.534124 5.812611 -2.246641 37.558038 -36.439898 -9.096660 -4.061549 3.192580 -0.118320 0.352570 -0.232910 0.144620 10.022749 2.714952 2.982518 -2.297441 -6.794781 -2.873701 -35.047467 42.175911 -9.448145 2.078855 -1.945120 -0.130610 0.155490 -0.042630 -0.064240 
-1.711100 16.780910 -2.821360 3.103559 0.702122 5.713109 -14.891816 12.747823 2.901840 13.860862 -1.660645 -10.472054 -4.550959 3.542548 -0.684615 -0.255918 3.895673 3.333700 0.277320 0.243480 0.155340 18.566553 -10.565594 2.775352 -24.739840 0.213544 -26.256630 12.954884 -10.126151 25.274824 -0.116078 -5.420123 2.285866 0.332100 0.280240 0.115380 -4.420914 -1.409760 -7.354453 16.196289 -5.835476 9.194650 -12.892169 -3.195170 4.666491 2.580400 -7.582303 -7.423743 -12.990586 6.464329 20.974642 -6.034330 5.325940 -4.752680 -16.446455 -2.068781 1.408618 0.361033 8.800267 -0.907038 23.295524 -29.413697 -3.788311 -4.011138 3.320059 -0.093780 0.332750 -0.213000 0.129240 10.678054 6.270018 4.111262 -8.229999 -6.085115 -1.166649 -19.757831 34.937709 -3.675045 2.154926 -1.939395 -0.127750 0.139090 -0.043890 -0.077870 
-1.830180 16.793070 -2.823300 3.476245 0.644592 5.133144 -14.894255 12.757602 2.850324 14.187738 -1.513018 -9.546510 -4.579373 3.676627 -0.443109 -0.203136 3.957876 3.313301 0.249260 0.202140 0.151680 18.583362 -10.483556 2.851383 -24.855082 0.349066 -27.176594 13.647954 -11.058106 27.718062 -0.181931 -5.775028 2.164744 0.282490 0.254240 0.108600 -4.438748 -1.508985 -7.376657 16.293295 -6.254955 9.165929 -13.397153 -3.308599 6.126670 2.676157 -7.408363 -8.412810 -12.996753 6.387216 21.767498 -5.965820 5.489400 -4.558300 -16.347791 -4.629795 2.267771 4.569501 9.892977 0.090910 12.319894 -24.103155 -1.094911 -3.913424 3.393394 -0.067160 0.302630 -0.193100 0.116790 10.482817 8.573822 5.099705 -10.575758 -5.503082 -0.255678 -10.054455 29.137136 -1.022978 2.209679 -1.866748 -0.120430 0.122510 -0.041710 -0.081920 
-1.948710 16.803430 -2.815560 3.850270 0.357922 4.462968 -14.910003 12.863525 2.770210 14.565132 -1.323340 -8.886668 -4.740448 3.985560 0.880112 -0.159699 4.014704 3.290099 0.220420 0.161340 0.139760 18.570135 -10.414924 2.927141 -24.757948 0.531257 -27.861548 14.107946 -11.849412 29.947168 -0.246595 -6.083321 2.066637 0.234490 0.231230 0.094920 -4.391740 -1.722509 -7.394026 15.695865 -6.584774 9.351192 -13.238788 -3.561512 6.707976 2.648438 -7.457025 -9.150507 -13.496388 6.675268 22.826487 -5.692020 5.781700 -4.161040 -16.130526 -6.368396 2.977431 6.314598 10.389157 0.606723 4.440759 -20.094975 0.166526 -3.814524 3.427878 -0.036260 0.268280 -0.174840 0.110690 10.423189 10.337298 5.693919 -11.236052 -4.081753 0.021930 -3.112209 25.737030 0.311003 2.256922 -1.784929 -0.118710 0.109820 -0.041220 -0.083530 
